# xmcd
#
# Track frame offsets:
#	150
#	20506
#	35568
#	61027
#	85845
#	103881
#	117629
#	139935
#	157247
#	177145
#
# Disc length: 2615 seconds
#
# Revision: 0
# Processed by: cddbd v1.5.2PL0 Copyright (c) Steve Scherf et al.
# Submitted via: EasyCDDAExtractor 12.0.1.1
#
DISCID=890a350a
DTITLE=Various Artist - CD2 Grey Sky - 기억을 스치다
DYEAR=1900
DGENRE=
TTITLE0=타루 - Miss you
TTITLE1=Love and Pop - Winter In My Mind
TTITLE2=Herz Analog - 아련한 기억
TTITLE3=Epitone Project - 새벽녘
TTITLE4=Lucia(심규선) - 그대의 고요
TTITLE5=Hee Young(희영) - Are You Still Waiting?
TTITLE6=Sentimental Scenery - Beautiful Dream
TTITLE7=Epitone Project - 그대는 어디에 (feat. 한희정)
TTITLE8=Lucia(심규선) - 안녕, 안녕
TTITLE9=짙은 - 곁에
EXTD=
EXTT0=
EXTT1=
EXTT2=
EXTT3=
EXTT4=
EXTT5=
EXTT6=
EXTT7=
EXTT8=
EXTT9=
PLAYORDER=
